# xmcd
#
# Track frame offsets:
#	150
#	16218
#	38072
#	52025
#	71671
#	86249
#	99786
#	117110
#	130491
#	144782
#	164559
#	182220
#	199838
#	213738
#	227757
#	242536
#	263236
#	280839
#
# Disc length: 3943 seconds
#
# Revision: 1
# Processed by: cddbd v1.5.2PL0 Copyright (c) Steve Scherf et al.
# Submitted via: audiograbber 1.83.01
#
DISCID=050f6512
DTITLE=Various Artist - MREC-060
DYEAR=1900
DGENRE=Country
TTITLE0=Shania Twain - You're Still The One
TTITLE1=Shania Twain - From This Moment On
TTITLE2=Dolly Parton - 9 To 5
TTITLE3=Shania Twain - Any Man Of Mine
TTITLE4=Billie Jo Spears - 57 Chevrolet
TTITLE5=Pam Tillis - When You Walk In The Room
TTITLE6=Bonnie Tyler - It's A Heartache
TTITLE7=Billie Jo Spears - What I've Got In Mind
TTITLE8=Shania Twain - Come On Over
TTITLE9=Shania Twain - I'm Gonna Getcha Good
TTITLE10=Shania Twain - Don't Be Stupid
TTITLE11=LeAnn Rimes - Can't Fight This Moonlight
TTITLE12=Nancy Sinatra - These Boots Are Made For Walking
TTITLE13=LeAnn Rimes - Blue
TTITLE14=Carly Simon - Nobody Does It Better
TTITLE15=Carly Simon - You're So Vain
TTITLE16=Elkie Brooks - Pearl's A Singer
TTITLE17=Dolly Parton - I Will Always Love You
EXTD=
EXTT0=
EXTT1=
EXTT2=
EXTT3=
EXTT4=
EXTT5=
EXTT6=
EXTT7=
EXTT8=
EXTT9=
EXTT10=
EXTT11=
EXTT12=
EXTT13=
EXTT14=
EXTT15=
EXTT16=
EXTT17=
PLAYORDER=
